<?xml version="1.0" encoding="utf-8"?>
<!-- Generator: Adobe Illustrator 23.0.4, SVG Export Plug-In . SVG Version: 6.00 Build 0)  -->
<svg version="1.1" id="Layer_1" xmlns="http://www.w3.org/2000/svg" xmlns:xlink="http://www.w3.org/1999/xlink" x="0px" y="0px"
	 viewBox="0 0 180 180" style="enable-background:new 0 0 180 180;" xml:space="preserve">
<style type="text/css">
	.st0{fill:#DDDFE7;}
	.st1{fill:#EEF0F7;}
	.st2{fill:#FFFFFF;}
	.st3{fill:#FF7485;}
</style>
<g>
	<path class="st0" d="M133,164H40.9c-1.6,0-3-1.3-3-3V28c0-1.6,1.3-3,3-3H133c1.6,0,3,1.3,3,3V161C135.9,162.7,134.6,164,133,164z"
		/>
	<path class="st1" d="M141,155H48.9c-1.6,0-3-1.3-3-3V19c0-1.6,1.3-3,3-3H141c1.6,0,3,1.3,3,3V152C143.9,153.7,142.6,155,141,155z"
		/>
	<g>
		<rect x="56.9" y="45.1" class="st2" width="72" height="5.7"/>
		<rect x="56.9" y="45.1" class="st2" width="72" height="5.7"/>
		<rect x="56.9" y="56.7" class="st2" width="72" height="5.7"/>
		<rect x="56.9" y="68.3" class="st2" width="72" height="5.7"/>
		<rect x="56.9" y="79.9" class="st2" width="72" height="5.7"/>
		<rect x="56.9" y="91.5" class="st2" width="72" height="5.7"/>
		<rect x="56.9" y="103.1" class="st2" width="72" height="5.7"/>
		<rect x="56.9" y="114.7" class="st2" width="72" height="5.7"/>
		<rect x="56.9" y="126.3" class="st2" width="72" height="5.7"/>
	</g>
	<g>
		<path class="st3" d="M73.9,91.9H28.3c-1.1,0-2-0.9-2-2V60c0-1.1,0.9-2,2-2h45.6c1.1,0,2,0.9,2,2v29.8C75.9,91,75,91.9,73.9,91.9z"
			/>
		<g>
			<g>
				<path class="st2" d="M36.1,80.8V69.1h3.9c0.7,0,1.3,0.1,1.8,0.3c0.5,0.2,1,0.5,1.3,0.8c0.4,0.3,0.6,0.8,0.8,1.2
					c0.2,0.5,0.3,1,0.3,1.5c0,0.5-0.1,1-0.3,1.5c-0.2,0.5-0.4,0.9-0.8,1.2c-0.4,0.4-0.8,0.6-1.3,0.8c-0.5,0.2-1.1,0.3-1.8,0.3h-1.6
					v3.9H36.1z M38.4,74.8h1.3c0.6,0,1.2-0.2,1.6-0.5c0.4-0.3,0.6-0.8,0.6-1.4c0-0.7-0.2-1.1-0.6-1.4c-0.4-0.3-0.9-0.4-1.6-0.4h-1.3
					V74.8z"/>
				<path class="st2" d="M55.5,77.3c-0.3,0.7-0.7,1.3-1.2,1.8c-0.5,0.5-1.1,0.9-1.9,1.2c-0.7,0.3-1.6,0.4-2.6,0.4h-4V69.1h4
					c1,0,1.8,0.1,2.6,0.4c0.7,0.3,1.4,0.7,1.9,1.2c0.5,0.5,0.9,1.1,1.2,1.8c0.3,0.7,0.4,1.5,0.4,2.4C55.9,75.8,55.7,76.6,55.5,77.3z
					 M53.2,73.3c-0.2-0.5-0.5-0.9-0.8-1.2c-0.3-0.3-0.7-0.6-1.2-0.7s-1-0.2-1.5-0.2h-1.6v7.7h1.6c0.5,0,1-0.1,1.5-0.2
					c0.5-0.2,0.9-0.4,1.2-0.7c0.3-0.3,0.6-0.7,0.8-1.2c0.2-0.5,0.3-1.1,0.3-1.7C53.5,74.3,53.4,73.7,53.2,73.3z"/>
				<path class="st2" d="M60,80.8h-2.3V69.1h8.4v2H60v3h4.5v2H60V80.8z"/>
			</g>
		</g>
	</g>
</g>
</svg>
